<?xml version="1.0" standalone="no"?>
<!DOCTYPE svg PUBLIC "-//W3C//DTD SVG 20010904//EN"
 "http://www.w3.org/TR/2001/REC-SVG-20010904/DTD/svg10.dtd">
<svg version="1.0" xmlns="http://www.w3.org/2000/svg"
 width="787.000000pt" height="619.000000pt" viewBox="0 0 787.000000 619.000000"
 preserveAspectRatio="xMidYMid meet">

<g transform="translate(0.000000,619.000000) scale(0.100000,-0.100000)"
fill="#000000" stroke="none">
<path d="M3117 5165 c-46 -16 -81 -47 -96 -83 -8 -19 -11 -385 -9 -1264 l3
-1237 35 -36 c19 -19 50 -40 70 -45 19 -5 104 -10 188 -10 l152 0 0 70 0 70
-138 0 c-94 0 -142 4 -150 12 -7 7 -12 39 -12 75 l0 63 825 0 826 0 -3 -72 -3
-73 -590 -5 -590 -5 0 -65 0 -65 620 0 620 0 34 24 c18 13 42 42 52 65 18 39
19 92 19 1241 0 757 -4 1213 -10 1235 -13 47 -68 99 -116 111 -22 4 -410 8
-864 8 -673 0 -832 -2 -863 -14z m55 -1220 l-2 -1075 814 0 c733 0 814 2 820
16 3 9 6 484 6 1055 0 772 -3 1046 -12 1062 -10 20 -10 21 5 8 16 -12 17 -97
17 -1071 0 -879 -2 -1059 -14 -1069 -10 -8 -234 -10 -827 -9 l-814 3 -3 1065
c-2 951 -1 1090 10 1090 2 0 2 -484 0 -1075z m1566 -2 l-3 -998 -747 -3 -748
-2 0 1000 0 1000 750 0 750 0 -2 -997z"/>
<path d="M3270 4795 l0 -125 115 0 115 0 0 125 0 125 -115 0 -115 0 0 -125z
m198 3 l-3 -83 -80 0 -80 0 -3 83 -3 82 86 0 86 0 -3 -82z"/>
<path d="M3324 4847 c-3 -8 -4 -36 -2 -63 l3 -49 60 0 60 0 0 60 0 60 -58 3
c-42 2 -59 -1 -63 -11z m86 -53 c0 -21 -4 -25 -22 -22 -15 2 -24 11 -26 26 -3
18 1 22 22 22 21 0 26 -5 26 -26z"/>
<path d="M3537 4913 c-4 -3 -7 -22 -7 -40 l0 -34 40 32 c22 18 40 36 40 41 0
10 -64 11 -73 1z"/>
<path d="M3643 4905 c-37 -16 -53 -42 -53 -84 0 -44 46 -81 65 -51 10 16 25 1
25 -24 0 -50 -79 -78 -118 -43 -25 23 -32 21 -32 -8 0 -17 16 -43 46 -75 52
-56 64 -61 64 -27 1 31 25 58 100 107 77 51 99 76 100 112 0 45 -20 76 -62 92
-47 19 -93 20 -135 1z m163 -71 c7 -29 -2 -44 -28 -44 -17 0 -18 3 -8 15 7 8
10 25 6 40 -5 19 -3 23 9 19 8 -4 18 -17 21 -30z"/>
<path d="M3880 4876 c0 -24 -3 -51 -6 -60 -9 -23 11 -20 56 10 34 22 40 32 40
60 0 34 -1 34 -45 34 l-45 0 0 -44z"/>
<path d="M4000 4891 c0 -25 8 -37 42 -61 22 -16 44 -30 48 -30 4 0 6 26 4 58
l-2 57 -46 3 c-45 3 -46 3 -46 -27z"/>
<path d="M4200 4909 c-39 -16 -59 -39 -66 -75 -9 -47 11 -73 102 -135 60 -40
80 -60 92 -91 l15 -39 49 48 c34 34 48 55 48 75 l0 27 -32 -19 c-40 -23 -83
-17 -104 16 -9 13 -13 32 -9 43 5 17 9 18 24 9 39 -24 77 23 62 79 -15 58
-109 90 -181 62z m0 -58 c-13 -25 -13 -27 6 -45 14 -15 14 -16 -4 -16 -11 0
-25 7 -32 15 -10 12 -9 20 4 40 20 30 42 35 26 6z"/>
<path d="M4360 4913 c0 -5 18 -23 40 -41 l40 -33 0 40 0 41 -40 0 c-22 0 -40
-3 -40 -7z"/>
<path d="M4472 4798 l3 -123 115 0 115 0 0 120 0 120 -118 3 -118 3 3 -123z
m196 0 l-3 -83 -77 -3 -78 -3 0 86 0 85 80 0 81 0 -3 -82z"/>
<path d="M4530 4795 l0 -66 58 3 57 3 3 63 3 62 -61 0 -60 0 0 -65z m85 0 c0
-14 -8 -21 -27 -23 -24 -3 -28 0 -28 23 0 23 4 26 28 23 19 -2 27 -9 27 -23z"/>
<path d="M3838 4741 c-80 -53 -150 -99 -154 -103 -4 -4 -10 -25 -13 -45 -8
-50 -41 -57 -81 -18 -16 15 -33 24 -39 21 -7 -5 -11 -46 -11 -107 l0 -99 -36
0 c-52 0 -72 -15 -79 -58 -4 -20 -11 -49 -17 -65 -14 -36 -69 -83 -107 -92
l-31 -7 0 -224 c0 -205 2 -225 18 -230 78 -23 117 -64 131 -139 11 -58 38 -85
87 -85 l34 0 0 -98 c0 -54 3 -102 6 -105 4 -4 22 7 41 24 50 43 73 34 88 -33
4 -22 35 -48 155 -128 82 -55 153 -100 157 -100 5 0 75 46 158 103 137 93 150
105 161 142 14 51 37 56 78 16 18 -17 35 -28 39 -25 4 4 7 52 7 106 l0 98 38
0 c46 0 82 32 82 74 0 35 34 100 62 121 13 8 40 20 61 26 l37 10 0 224 0 224
-36 7 c-52 10 -111 69 -118 119 -12 73 -26 90 -79 93 l-47 3 0 105 c0 70 -4
104 -11 104 -6 0 -27 -14 -46 -30 -41 -36 -59 -29 -69 27 -6 31 -20 44 -153
132 -80 53 -150 100 -156 103 -5 3 -76 -38 -157 -91z m-128 -275 c0 -2 -23
-18 -50 -36 -71 -45 -155 -142 -196 -225 -80 -163 -82 -339 -7 -508 26 -59 93
-150 138 -190 52 -47 145 -100 214 -122 42 -13 69 -24 60 -25 -35 -1 -144 45
-212 89 -161 106 -253 265 -264 461 -9 165 43 310 154 430 56 61 163 144 163
126z m353 -65 c38 -40 68 -82 72 -100 l6 -30 87 -3 87 -3 3 -81 3 -81 38 -18
c21 -9 66 -45 100 -79 l62 -62 -74 -71 c-40 -40 -86 -75 -100 -78 -27 -7 -27
-8 -27 -91 l0 -84 -85 0 -85 0 -15 -37 c-9 -21 -46 -68 -83 -105 l-66 -68 -64
63 c-35 34 -72 81 -83 105 l-18 42 -81 0 -80 0 0 80 0 80 -37 15 c-40 17 -163
131 -163 151 0 20 127 131 164 144 l36 12 0 84 0 84 84 0 c83 0 84 0 91 27 6
24 139 173 155 173 4 0 37 -31 73 -69z m332 -27 c249 -238 249 -629 0 -863
-53 -49 -167 -121 -191 -121 -5 0 21 17 59 38 95 52 148 100 206 187 157 235
127 540 -73 740 -39 39 -82 79 -96 89 -22 15 -20 14 9 -1 18 -10 57 -41 86
-69z m-215 -993 c-8 -5 -33 -12 -55 -15 l-40 -6 45 14 c53 17 71 19 50 7z
m-142 -28 c-26 -2 -71 -2 -100 0 -29 2 -8 3 47 3 55 0 79 -1 53 -3z"/>
<path d="M3932 4367 c-31 -32 -57 -68 -63 -90 l-10 -36 -82 -3 -82 -3 -3 -87
-3 -88 -30 0 c-24 0 -45 -13 -92 -60 l-62 -59 45 -46 c49 -51 88 -75 119 -75
18 0 20 -8 23 -82 l3 -83 80 -3 c83 -3 95 -9 95 -50 0 -15 21 -46 57 -83 l57
-60 49 48 c53 52 77 90 77 123 0 19 6 20 85 20 l85 0 0 84 0 83 37 6 c26 5 52
21 90 59 29 29 53 57 53 63 0 14 -78 89 -107 104 -12 6 -33 11 -47 11 -25 0
-25 1 -28 88 l-3 87 -81 3 -82 3 -7 36 c-4 24 -24 54 -57 89 -28 30 -54 54
-57 54 -4 0 -30 -24 -59 -53z m118 -147 l0 -50 85 0 85 0 0 -85 0 -85 50 0
c40 0 56 -5 80 -28 l31 -27 -30 -29 c-23 -22 -43 -30 -81 -34 l-50 -5 0 -83 0
-84 -70 0 c-67 0 -70 -1 -85 -30 -8 -16 -15 -38 -15 -48 0 -11 -14 -35 -31
-53 l-30 -32 -31 30 c-24 24 -32 42 -36 82 l-4 50 -82 3 -81 3 -3 81 -3 82
-50 4 c-49 5 -99 37 -99 63 0 24 59 55 105 55 l45 0 0 85 0 85 84 0 83 0 5 50
c3 33 14 61 33 86 l28 37 34 -36 c28 -31 33 -44 33 -87z"/>
<path d="M3922 4017 c-34 -34 -62 -66 -62 -70 0 -13 114 -137 125 -137 6 0 40
29 75 65 l65 65 -70 70 -70 70 -63 -63z m95 -39 c30 -28 29 -38 -5 -71 l-28
-27 -29 30 -29 30 29 30 c16 17 31 30 34 30 2 0 15 -10 28 -22z"/>
<path d="M3270 4637 c0 -7 6 -19 13 -26 10 -11 10 -13 0 -7 -10 6 -13 -13 -13
-78 0 -72 2 -84 15 -80 10 4 15 0 15 -15 0 -26 25 -38 45 -21 17 14 20 81 4
113 -10 21 -10 21 5 3 9 -11 16 -24 16 -30 0 -5 10 0 23 12 30 28 35 28 39 -5
2 -21 9 -29 27 -31 39 -6 47 12 64 153 2 18 -5 20 -63 23 -62 3 -64 3 -47 -16
24 -27 22 -62 -4 -62 -16 0 -19 4 -14 19 10 33 -27 61 -80 61 -30 0 -45 -4
-45 -13z"/>
<path d="M4443 4634 c-3 -8 -1 -20 6 -27 6 -6 11 -27 11 -46 0 -68 40 -110 75
-81 8 7 15 22 15 33 l0 21 22 -21 c20 -21 22 -21 35 -5 11 15 12 11 7 -24 -7
-49 8 -84 36 -84 19 0 24 10 21 38 -2 10 4 12 19 7 21 -7 21 -5 19 99 l-3 106
-46 0 c-56 0 -78 -15 -82 -55 -3 -32 -17 -36 -33 -11 -6 10 -4 20 8 34 9 10
17 22 17 25 0 4 -27 7 -60 7 -46 0 -62 -4 -67 -16z"/>
<path d="M3386 4438 c-3 -7 -7 -25 -10 -39 -8 -38 -51 -64 -82 -50 l-24 11 0
-86 c0 -84 0 -85 23 -79 58 18 88 56 101 126 4 21 15 48 26 62 25 32 25 31 -5
51 -20 13 -26 14 -29 4z"/>
<path d="M3491 4436 c-8 -10 -9 -16 -1 -21 5 -3 13 1 16 10 9 22 -1 29 -15 11z"/>
<path d="M4462 4434 c3 -17 21 -21 26 -6 1 5 -4 12 -13 16 -11 4 -15 1 -13
-10z"/>
<path d="M4550 4430 l-25 -19 24 -25 c13 -14 27 -46 32 -72 5 -26 16 -58 25
-72 17 -26 79 -56 94 -47 6 4 10 40 10 82 l0 76 -31 -7 c-25 -5 -36 -1 -60 23
-17 17 -29 40 -29 55 0 31 -7 32 -40 6z"/>
<path d="M3270 3611 l0 -80 33 6 c28 4 37 1 55 -22 12 -15 22 -38 22 -51 0
-31 11 -35 38 -14 27 22 27 25 3 49 -11 11 -23 41 -27 68 -5 37 -16 57 -44 86
-21 20 -47 37 -59 37 -20 0 -21 -5 -21 -79z"/>
<path d="M4643 3670 c-37 -22 -58 -58 -66 -114 -4 -21 -16 -49 -28 -62 -12
-13 -21 -25 -18 -27 2 -2 16 -11 32 -20 l27 -17 0 28 c0 16 10 42 22 57 18 23
26 26 60 22 l38 -5 0 79 c0 89 -7 96 -67 59z"/>
<path d="M3313 3483 c-7 -2 -13 -15 -13 -29 0 -17 -4 -22 -15 -18 -13 5 -15
-7 -15 -76 0 -62 3 -80 13 -74 10 6 10 4 0 -7 -7 -7 -13 -21 -13 -31 0 -14 8
-18 39 -18 52 0 95 33 86 67 -5 20 -2 24 12 21 23 -4 29 -41 8 -58 -27 -22
-17 -30 39 -30 63 0 88 19 68 51 -7 10 -12 37 -12 59 0 76 -73 105 -82 33 l-3
-28 -24 24 c-15 15 -26 20 -29 13 -2 -6 -12 -22 -23 -34 l-19 -23 15 30 c19
39 19 99 -1 119 -8 9 -16 16 -17 15 -1 0 -8 -3 -14 -6z"/>
<path d="M4625 3467 c-20 -29 -19 -65 4 -110 10 -20 15 -34 10 -31 -5 3 -16
19 -25 36 -14 28 -17 29 -33 14 -23 -21 -28 -20 -35 8 -6 26 -28 39 -50 30
-20 -7 -36 -49 -36 -92 0 -21 -5 -43 -12 -50 -8 -8 -8 -15 2 -27 17 -20 120
-22 120 -1 0 8 -7 17 -16 20 -23 9 -14 50 12 54 18 3 20 -1 16 -26 -5 -36 15
-53 72 -59 54 -7 66 9 35 45 -13 15 -17 21 -9 15 26 -23 30 -14 30 68 0 77 -1
81 -20 76 -12 -3 -20 -1 -19 6 5 42 -23 56 -46 24z"/>
<path d="M3482 3458 c6 -18 28 -21 28 -4 0 9 -7 16 -16 16 -9 0 -14 -5 -12
-12z"/>
<path d="M4465 3459 c-4 -6 -5 -13 -2 -16 7 -7 27 6 27 18 0 12 -17 12 -25 -2z"/>
<path d="M3577 3262 c-27 -28 -47 -57 -47 -70 0 -26 7 -27 34 -7 45 34 121 1
114 -48 -2 -18 -9 -21 -31 -19 -15 2 -35 -2 -43 -8 -22 -19 -17 -75 10 -107
23 -26 29 -28 101 -28 72 0 78 2 101 28 25 29 31 75 14 106 -5 10 -45 41 -88
70 -73 48 -102 81 -102 116 0 24 -13 17 -63 -33z m221 -174 c7 -7 12 -19 12
-27 0 -17 -29 -51 -44 -51 -6 0 -5 5 2 12 19 19 14 49 -8 55 -11 3 -17 9 -14
14 8 13 38 11 52 -3z"/>
<path d="M4335 3294 c-17 -52 -29 -66 -99 -113 -106 -72 -122 -100 -91 -160
19 -38 63 -54 131 -49 42 4 61 11 81 31 47 47 28 124 -28 113 -36 -7 -46 19
-21 54 23 30 65 37 97 16 32 -21 35 -20 35 7 0 14 -19 41 -50 72 -43 43 -50
46 -55 29z m-110 -204 c3 -5 -1 -10 -10 -10 -24 0 -29 -27 -10 -56 16 -25 16
-25 -5 -14 -27 14 -41 50 -28 73 9 18 43 23 53 7z"/>
<path d="M3270 3090 l0 -120 115 0 115 0 0 120 0 120 -115 0 -115 0 0 -120z
m198 -2 l-3 -83 -80 0 -80 0 -3 83 -3 82 86 0 86 0 -3 -82z"/>
<path d="M3327 3144 c-4 -4 -7 -31 -7 -61 l0 -53 65 0 66 0 -3 58 -3 57 -55 3
c-31 2 -59 0 -63 -4z m83 -59 c0 -20 -5 -25 -25 -25 -20 0 -25 5 -25 25 0 20
5 25 25 25 20 0 25 -5 25 -25z"/>
<path d="M4470 3090 l0 -120 120 0 120 0 0 120 0 120 -120 0 -120 0 0 -120z
m198 -2 l-3 -83 -77 -3 -78 -3 0 86 0 85 80 0 81 0 -3 -82z"/>
<path d="M4530 3090 l0 -60 60 0 60 0 0 60 0 60 -60 0 -60 0 0 -60z m90 -5 c0
-21 -5 -25 -30 -25 -25 0 -30 4 -30 25 0 21 5 25 30 25 25 0 30 -4 30 -25z"/>
<path d="M3873 3077 c4 -10 7 -39 7 -63 l0 -44 45 0 c43 0 45 1 45 29 0 20 -8
34 -25 45 -14 9 -37 24 -52 33 -26 17 -27 17 -20 0z"/>
<path d="M4048 3057 c-37 -25 -48 -38 -48 -59 0 -27 2 -28 48 -28 l47 0 0 60
c1 33 1 60 0 59 0 0 -21 -15 -47 -32z"/>
<path d="M3530 3005 c0 -35 0 -35 47 -35 l46 0 -39 35 c-21 19 -42 34 -46 35
-5 0 -8 -16 -8 -35z"/>
<path d="M4416 3025 c-3 -8 -17 -20 -31 -27 -37 -17 -31 -28 15 -28 39 0 40 1
40 35 0 36 -13 47 -24 20z"/>
<path d="M1600 2021 c-56 -17 -91 -43 -117 -89 -53 -90 -30 -227 47 -282 l30
-22 -30 -28 c-16 -15 -30 -32 -30 -37 0 -5 28 -9 63 -9 34 0 88 -6 119 -14 69
-17 105 -8 127 32 19 33 11 42 -22 27 -27 -12 -97 -5 -97 10 0 5 12 12 26 15
114 29 168 195 100 310 -43 73 -137 111 -216 87z m85 -17 c9 -4 26 -25 38 -48
18 -34 22 -57 22 -136 -1 -111 -23 -168 -74 -189 -39 -17 -64 -3 -93 52 -19
35 -23 58 -23 137 0 79 4 102 22 137 12 22 28 43 35 46 19 8 54 8 73 1z"/>
<path d="M6763 2019 c-45 -13 -73 -53 -73 -103 0 -52 16 -76 88 -128 93 -67
113 -106 74 -141 -46 -42 -117 -5 -129 67 -9 55 -19 52 -37 -12 -21 -75 -21
-72 15 -72 18 0 49 -5 69 -11 52 -16 107 -3 142 31 23 23 28 37 28 75 0 42 -5
52 -38 84 -21 20 -60 52 -87 71 -40 28 -51 42 -53 68 -4 43 12 62 52 62 41 0
72 -32 84 -85 l9 -40 11 26 c6 15 14 42 17 62 l7 34 -62 7 c-34 4 -67 9 -73
11 -7 2 -26 -1 -44 -6z"/>
<path d="M746 1990 c29 -30 44 -26 44 13 0 13 -8 17 -36 17 l-36 0 28 -30z"/>
<path d="M804 1983 c-9 -21 -20 -40 -25 -43 -8 -5 -64 -145 -92 -229 -6 -18
-23 -46 -38 -62 l-27 -29 44 0 c41 0 43 1 32 19 -9 14 -8 29 2 66 7 26 18 48
24 50 24 7 148 12 137 6 -8 -5 -7 -20 5 -56 13 -37 14 -52 5 -67 -10 -17 -6
-18 70 -18 l81 0 -25 30 c-14 16 -37 62 -52 102 -84 220 -101 262 -113 266 -7
2 -19 -13 -28 -35z m9 -135 c14 -36 23 -69 20 -72 -12 -12 -103 -6 -103 7 0
12 36 113 47 130 7 12 8 9 36 -65z"/>
<path d="M1110 2011 c0 -6 5 -13 10 -16 6 -4 10 -73 10 -175 0 -102 -4 -171
-10 -175 -5 -3 -10 -10 -10 -16 0 -10 38 -12 90 -3 l35 6 -3 175 c-2 113 1
180 8 187 21 21 9 26 -60 26 -38 0 -70 -4 -70 -9z"/>
<path d="M1916 1993 c10 -20 14 -64 14 -156 0 -141 8 -170 57 -203 39 -25 128
-25 167 1 46 30 56 69 56 212 0 100 3 133 16 151 15 22 15 22 -33 22 l-48 0
25 -20 c25 -19 25 -21 25 -159 0 -134 -1 -140 -24 -165 -40 -43 -111 -35 -136
15 -22 41 -21 276 1 307 l15 22 -75 0 -75 0 15 -27z"/>
<path d="M2314 1998 c13 -18 16 -53 16 -178 0 -125 -3 -160 -16 -178 l-15 -22
75 0 74 0 -15 31 c-12 24 -14 62 -12 194 4 185 8 175 -72 175 -50 0 -50 0 -35
-22z"/>
<path d="M2488 1997 c45 -47 21 -167 -33 -167 -21 0 -20 -6 20 -97 19 -45 32
-88 29 -97 -5 -14 5 -16 71 -16 l78 0 -27 25 c-15 14 -44 60 -63 102 -33 73
-34 78 -17 88 60 34 79 89 48 134 -18 25 -71 51 -105 51 l-22 0 21 -23z"/>
<path d="M2853 1993 c23 -24 29 -26 37 -13 19 29 11 40 -27 40 l-38 0 28 -27z"/>
<path d="M2911 1989 c-6 -18 -17 -40 -25 -48 -19 -24 -67 -161 -60 -173 4 -6
35 -9 81 -6 41 3 69 2 62 -2 -9 -6 -8 -19 4 -55 12 -34 14 -53 6 -66 -9 -18
-5 -19 72 -19 l81 0 -23 24 c-14 14 -53 100 -90 198 -70 182 -87 206 -108 147z
m8 -135 c30 -80 29 -84 -27 -84 -27 0 -51 2 -54 6 -3 3 3 28 14 57 10 29 21
58 23 65 9 25 23 11 44 -44z"/>
<path d="M3220 2009 c0 -4 5 -11 10 -14 6 -4 10 -73 10 -175 0 -102 -4 -171
-10 -175 -22 -14 -8 -25 32 -25 l42 0 -22 20 c-21 19 -22 30 -22 160 0 77 3
140 8 139 4 0 57 -70 117 -156 l110 -156 8 69 c5 38 10 119 13 179 3 61 9 114
15 120 18 18 9 25 -33 25 l-42 0 22 -20 c20 -19 22 -31 22 -115 0 -52 -2 -95
-5 -95 -2 0 -41 52 -86 115 l-82 115 -54 -1 c-29 -1 -53 -5 -53 -10z"/>
<path d="M3750 2011 c0 -6 5 -13 10 -16 14 -8 13 -330 0 -356 -12 -22 -4 -23
71 -13 l44 6 -2 187 -2 186 -28 6 c-44 10 -93 10 -93 0z"/>
<path d="M3931 2006 c43 -25 64 -88 64 -191 -1 -99 -14 -137 -61 -174 -27 -21
-27 -21 -4 -21 43 0 110 41 138 83 23 34 27 51 27 111 0 116 -55 189 -151 202
-39 5 -39 5 -13 -10z"/>
<path d="M4236 1990 c29 -30 44 -26 44 13 0 13 -8 17 -36 17 l-36 0 28 -30z"/>
<path d="M4281 1966 c-17 -31 -48 -102 -70 -159 -47 -126 -66 -163 -88 -176
-14 -8 -8 -10 30 -11 43 0 46 1 36 18 -13 21 -5 80 14 104 8 11 35 17 86 21
40 2 68 1 61 -3 -10 -6 -8 -19 5 -55 15 -38 16 -51 7 -66 -12 -18 -8 -19 70
-19 l81 0 -24 26 c-14 14 -52 99 -89 196 -36 94 -70 173 -76 175 -7 2 -26 -21
-43 -51z m42 -188 c-8 -14 -103 -9 -103 5 0 12 37 113 47 131 3 5 18 -22 33
-60 16 -38 26 -72 23 -76z"/>
<path d="M4600 2009 c0 -4 5 -11 10 -14 6 -4 10 -73 10 -175 0 -102 -4 -171
-10 -175 -22 -14 -8 -25 32 -25 l42 0 -22 20 c-21 20 -22 29 -22 167 0 82 4
143 9 138 4 -6 57 -79 117 -164 l109 -153 8 63 c4 35 10 116 13 179 3 63 10
119 15 125 18 18 9 25 -33 25 l-42 0 22 -20 c20 -19 22 -31 22 -115 0 -52 -2
-95 -5 -95 -2 0 -41 52 -86 115 l-82 115 -54 -1 c-29 -1 -53 -5 -53 -10z"/>
<path d="M5130 2011 c0 -5 6 -11 13 -13 18 -7 17 -339 -2 -361 -12 -16 -7 -17
58 -17 65 0 87 9 61 25 -5 3 -10 44 -10 91 l0 84 60 0 60 0 0 -78 c0 -54 -5
-84 -16 -100 l-15 -22 76 0 76 0 -15 22 c-22 31 -23 309 -2 351 l15 27 -75 0
-75 0 15 -22 c11 -15 16 -45 16 -90 0 -61 2 -68 19 -68 11 0 23 -4 26 -10 3
-6 -5 -10 -19 -10 -14 0 -28 5 -31 10 -3 6 -28 10 -55 10 -27 0 -52 -4 -55
-10 -3 -5 -15 -10 -26 -10 -10 0 -19 5 -19 10 0 6 9 10 20 10 18 0 20 7 20 74
0 41 5 78 10 81 26 16 4 25 -60 25 -38 0 -70 -4 -70 -9z"/>
<path d="M5670 2016 c0 -3 11 -17 25 -32 l25 -27 9 24 c5 13 7 27 4 32 -4 7
-63 10 -63 3z"/>
<path d="M5745 1983 c-9 -21 -19 -40 -24 -43 -9 -6 -61 -139 -61 -156 0 -18
-51 -118 -73 -141 l-20 -23 41 0 c39 0 41 1 30 19 -9 15 -9 28 0 58 7 21 15
43 19 49 5 6 44 14 88 17 51 4 74 2 64 -3 -15 -9 -15 -13 0 -55 13 -37 14 -49
3 -65 -12 -19 -10 -20 69 -20 l81 0 -25 29 c-13 16 -50 101 -82 188 -75 204
-82 213 -110 146z m15 -147 c10 -30 16 -57 13 -60 -10 -10 -103 -7 -103 3 0 8
16 57 40 116 10 27 13 28 21 12 6 -9 19 -42 29 -71z"/>
<path d="M6066 1993 c10 -21 14 -66 14 -173 0 -107 -4 -152 -14 -172 -14 -27
-14 -28 12 -28 15 0 43 3 62 6 l35 6 0 188 0 188 -44 6 c-79 11 -82 10 -65
-21z"/>
<path d="M6242 1997 c39 -31 59 -88 60 -166 0 -88 -17 -148 -54 -183 -35 -32
-20 -37 39 -13 48 20 71 41 94 87 38 74 19 199 -38 250 -23 21 -86 48 -110 48
-14 0 -13 -5 9 -23z"/>
<path d="M6460 2011 c0 -6 5 -13 10 -16 14 -8 13 -330 0 -356 -10 -18 -7 -19
60 -19 67 0 70 1 60 19 -13 26 -14 348 0 356 26 16 4 25 -60 25 -38 0 -70 -4
-70 -9z"/>
<path d="M7015 2008 c-8 -27 -12 -118 -4 -118 4 0 11 15 14 33 9 40 28 67 57
84 21 11 20 12 -20 13 -26 0 -44 -5 -47 -12z"/>
<path d="M7147 2011 c-17 -6 -19 -20 -17 -175 1 -137 -2 -173 -15 -192 l-15
-24 80 0 81 0 -21 27 c-20 26 -21 37 -19 192 2 153 0 165 -17 172 -24 9 -34 9
-57 0z"/>
<path d="M7277 2000 c25 -15 36 -32 45 -65 7 -25 16 -45 21 -45 5 0 7 10 3 23
-3 12 -6 41 -6 65 l0 42 -47 0 -48 0 32 -20z"/>
<path d="M1376 1758 c-3 -7 -10 -30 -16 -50 -12 -39 -28 -56 -69 -75 -24 -10
-21 -11 31 -12 64 -1 57 -10 72 101 4 36 -10 64 -18 36z"/>
<path d="M2795 1713 c-10 -26 -29 -57 -43 -70 l-25 -23 47 0 c42 0 46 2 33 15
-15 14 -13 30 8 103 13 40 -2 23 -20 -25z"/>
<path d="M2948 1250 c-2 -69 1 -110 7 -110 6 0 10 43 10 110 0 60 -3 110 -7
110 -4 0 -8 -50 -10 -110z"/>
<path d="M3280 1250 c0 -81 3 -110 13 -110 9 0 12 29 12 110 0 81 -3 110 -12
110 -10 0 -13 -29 -13 -110z"/>
<path d="M3600 1250 c0 -67 4 -110 10 -110 6 0 10 43 10 110 0 67 -4 110 -10
110 -6 0 -10 -43 -10 -110z"/>
<path d="M3961 1322 c-12 -23 -21 -45 -21 -49 1 -4 9 8 19 27 l19 35 23 -50
c12 -28 32 -71 43 -97 12 -26 26 -47 33 -48 11 0 -68 194 -87 214 -5 4 -18
-10 -29 -32z"/>
<path d="M4278 1225 c-2 -89 0 -131 7 -124 14 14 20 259 6 259 -6 0 -11 -51
-13 -135z"/>
<path d="M4581 1333 c-10 -23 -10 -25 2 -15 12 10 18 3 37 -40 40 -95 62 -138
71 -138 5 0 3 15 -5 33 -61 143 -82 187 -87 187 -3 0 -11 -12 -18 -27z"/>
<path d="M4895 1250 c0 -67 4 -110 10 -110 6 0 9 23 8 53 0 28 -2 78 -2 110
-1 31 -4 57 -8 57 -5 0 -8 -49 -8 -110z"/>
<path d="M3035 1311 c0 -31 3 -37 13 -29 15 13 12 60 -3 65 -6 2 -10 -15 -10
-36z"/>
<path d="M4997 1312 c4 -31 1 -43 -16 -59 l-21 -19 26 -35 c14 -19 29 -41 34
-49 5 -8 11 -12 15 -8 4 3 -7 25 -24 48 l-31 42 20 26 c23 29 26 65 6 81 -12
10 -13 6 -9 -27z"/>
<path d="M3920 1233 c-32 -70 -40 -93 -30 -93 5 0 10 5 10 11 0 5 9 31 21 56
11 25 19 47 16 49 -2 2 -10 -8 -17 -23z"/>
<path d="M3057 1206 c3 -22 1 -42 -7 -51 -16 -20 -6 -19 14 1 20 19 21 58 1
74 -12 10 -13 6 -8 -24z"/>
<path d="M4512 1185 c-12 -25 -18 -45 -14 -45 7 0 44 81 39 86 -2 2 -13 -17
-25 -41z"/>
</g>
</svg>
